<mxfile host="app.diagrams.net" modified="2023-09-09T12:28:11.773Z" agent="Mozilla/5.0 (X11; Ubuntu; Linux x86_64; rv:109.0) Gecko/20100101 Firefox/117.0" etag="q8Jkk9vFqdJndhaF8uJG" version="21.6.6" type="device">
  <diagram name="Page-1" id="3iJhMCqtSs_EPttf88cd">
    <mxGraphModel dx="1399" dy="1875" grid="1" gridSize="10" guides="1" tooltips="1" connect="1" arrows="1" fold="1" page="1" pageScale="1" pageWidth="850" pageHeight="1100" math="0" shadow="0">
      <root>
        <mxCell id="0" />
        <mxCell id="1" parent="0" />
        <mxCell id="t_ZIJ9nXfUMjoGaq77Y5-29" value="A" style="text;strokeColor=none;align=center;fillColor=none;html=1;verticalAlign=middle;whiteSpace=wrap;rounded=0;fontFamily=Lato;fontSource=https%3A%2F%2Ffonts.googleapis.com%2Fcss%3Ffamily%3DLato;fontColor=#666666;" vertex="1" parent="1">
          <mxGeometry x="330" y="320" width="30" height="20" as="geometry" />
        </mxCell>
        <mxCell id="t_ZIJ9nXfUMjoGaq77Y5-31" value="" style="rounded=0;whiteSpace=wrap;html=1;strokeColor=#00A499;strokeWidth=2;shadow=1;" vertex="1" parent="1">
          <mxGeometry x="400" y="320" width="80" height="40" as="geometry" />
        </mxCell>
        <mxCell id="t_ZIJ9nXfUMjoGaq77Y5-37" value="" style="endArrow=none;html=1;rounded=0;strokeWidth=2;strokeColor=#05C3DE;startArrow=oval;startFill=0;startSize=12;" edge="1" parent="1">
          <mxGeometry width="50" height="50" relative="1" as="geometry">
            <mxPoint x="360" y="330" as="sourcePoint" />
            <mxPoint x="400" y="330" as="targetPoint" />
          </mxGeometry>
        </mxCell>
        <mxCell id="t_ZIJ9nXfUMjoGaq77Y5-38" value="" style="endArrow=none;html=1;rounded=0;strokeWidth=2;strokeColor=#05C3DE;startArrow=oval;startFill=0;startSize=12;" edge="1" parent="1">
          <mxGeometry width="50" height="50" relative="1" as="geometry">
            <mxPoint x="360" y="350" as="sourcePoint" />
            <mxPoint x="400" y="350" as="targetPoint" />
          </mxGeometry>
        </mxCell>
        <mxCell id="t_ZIJ9nXfUMjoGaq77Y5-39" value="" style="rounded=0;whiteSpace=wrap;html=1;strokeColor=#00A499;strokeWidth=2;shadow=1;" vertex="1" parent="1">
          <mxGeometry x="400" y="400" width="80" height="40" as="geometry" />
        </mxCell>
        <mxCell id="t_ZIJ9nXfUMjoGaq77Y5-40" value="" style="endArrow=none;html=1;rounded=0;strokeWidth=2;strokeColor=#05C3DE;startArrow=oval;startFill=0;startSize=12;" edge="1" parent="1">
          <mxGeometry width="50" height="50" relative="1" as="geometry">
            <mxPoint x="360" y="410" as="sourcePoint" />
            <mxPoint x="400" y="410" as="targetPoint" />
          </mxGeometry>
        </mxCell>
        <mxCell id="t_ZIJ9nXfUMjoGaq77Y5-41" value="" style="endArrow=none;html=1;rounded=0;strokeWidth=2;strokeColor=#05C3DE;startArrow=oval;startFill=0;startSize=12;" edge="1" parent="1">
          <mxGeometry width="50" height="50" relative="1" as="geometry">
            <mxPoint x="360" y="430" as="sourcePoint" />
            <mxPoint x="400" y="430" as="targetPoint" />
          </mxGeometry>
        </mxCell>
        <mxCell id="t_ZIJ9nXfUMjoGaq77Y5-42" value="" style="rounded=0;whiteSpace=wrap;html=1;strokeColor=#00A499;strokeWidth=2;shadow=1;rotation=-180;container=0;" vertex="1" parent="1">
          <mxGeometry x="720" y="400" width="80" height="40" as="geometry" />
        </mxCell>
        <mxCell id="t_ZIJ9nXfUMjoGaq77Y5-43" value="" style="endArrow=none;html=1;rounded=0;strokeWidth=2;strokeColor=#05C3DE;startArrow=oval;startFill=0;startSize=12;" edge="1" parent="1">
          <mxGeometry width="50" height="50" relative="1" as="geometry">
            <mxPoint x="840" y="430" as="sourcePoint" />
            <mxPoint x="800" y="430" as="targetPoint" />
          </mxGeometry>
        </mxCell>
        <mxCell id="t_ZIJ9nXfUMjoGaq77Y5-44" value="" style="endArrow=none;html=1;rounded=0;strokeWidth=2;strokeColor=#05C3DE;startArrow=oval;startFill=0;startSize=12;" edge="1" parent="1">
          <mxGeometry width="50" height="50" relative="1" as="geometry">
            <mxPoint x="840" y="410" as="sourcePoint" />
            <mxPoint x="800" y="410" as="targetPoint" />
          </mxGeometry>
        </mxCell>
        <mxCell id="t_ZIJ9nXfUMjoGaq77Y5-45" value="" style="rounded=0;whiteSpace=wrap;html=1;strokeColor=#00A499;strokeWidth=2;shadow=1;rotation=-180;container=0;" vertex="1" parent="1">
          <mxGeometry x="720" y="320" width="80" height="40" as="geometry" />
        </mxCell>
        <mxCell id="t_ZIJ9nXfUMjoGaq77Y5-46" value="" style="endArrow=none;html=1;rounded=0;strokeWidth=2;strokeColor=#05C3DE;startArrow=oval;startFill=0;startSize=12;" edge="1" parent="1">
          <mxGeometry width="50" height="50" relative="1" as="geometry">
            <mxPoint x="840" y="350" as="sourcePoint" />
            <mxPoint x="800" y="350" as="targetPoint" />
          </mxGeometry>
        </mxCell>
        <mxCell id="t_ZIJ9nXfUMjoGaq77Y5-47" value="" style="endArrow=none;html=1;rounded=0;strokeWidth=2;strokeColor=#05C3DE;startArrow=oval;startFill=0;startSize=12;" edge="1" parent="1">
          <mxGeometry width="50" height="50" relative="1" as="geometry">
            <mxPoint x="840" y="330" as="sourcePoint" />
            <mxPoint x="800" y="330" as="targetPoint" />
          </mxGeometry>
        </mxCell>
        <mxCell id="t_ZIJ9nXfUMjoGaq77Y5-49" value="" style="endArrow=none;html=1;rounded=0;strokeWidth=2;strokeColor=#05C3DE;startArrow=none;startFill=0;startSize=12;entryX=1;entryY=0.75;entryDx=0;entryDy=0;" edge="1" parent="1" target="t_ZIJ9nXfUMjoGaq77Y5-78">
          <mxGeometry width="50" height="50" relative="1" as="geometry">
            <mxPoint x="480" y="330" as="sourcePoint" />
            <mxPoint x="560" y="330" as="targetPoint" />
          </mxGeometry>
        </mxCell>
        <mxCell id="t_ZIJ9nXfUMjoGaq77Y5-50" value="" style="endArrow=none;html=1;rounded=0;strokeWidth=2;strokeColor=#05C3DE;startArrow=none;startFill=0;startSize=12;exitX=1;exitY=0.75;exitDx=0;exitDy=0;entryX=1;entryY=0.75;entryDx=0;entryDy=0;" edge="1" parent="1" source="t_ZIJ9nXfUMjoGaq77Y5-31" target="t_ZIJ9nXfUMjoGaq77Y5-76">
          <mxGeometry width="50" height="50" relative="1" as="geometry">
            <mxPoint x="490" y="340" as="sourcePoint" />
            <mxPoint x="570" y="340" as="targetPoint" />
          </mxGeometry>
        </mxCell>
        <mxCell id="t_ZIJ9nXfUMjoGaq77Y5-51" value="" style="endArrow=none;html=1;rounded=0;strokeWidth=2;strokeColor=#05C3DE;startArrow=none;startFill=0;startSize=12;entryX=1;entryY=0.25;entryDx=0;entryDy=0;" edge="1" parent="1" target="t_ZIJ9nXfUMjoGaq77Y5-78">
          <mxGeometry width="50" height="50" relative="1" as="geometry">
            <mxPoint x="480" y="410" as="sourcePoint" />
            <mxPoint x="560" y="410" as="targetPoint" />
          </mxGeometry>
        </mxCell>
        <mxCell id="t_ZIJ9nXfUMjoGaq77Y5-52" value="" style="endArrow=none;html=1;rounded=0;strokeWidth=2;strokeColor=#05C3DE;startArrow=none;startFill=0;startSize=12;entryX=1;entryY=0.25;entryDx=0;entryDy=0;" edge="1" parent="1" target="t_ZIJ9nXfUMjoGaq77Y5-76">
          <mxGeometry width="50" height="50" relative="1" as="geometry">
            <mxPoint x="480" y="430" as="sourcePoint" />
            <mxPoint x="560" y="430" as="targetPoint" />
          </mxGeometry>
        </mxCell>
        <mxCell id="t_ZIJ9nXfUMjoGaq77Y5-54" value="" style="shape=flexArrow;endArrow=classic;html=1;rounded=0;strokeColor=#00A499;fillColor=#05C3DE;opacity=30;" edge="1" parent="1">
          <mxGeometry width="50" height="50" relative="1" as="geometry">
            <mxPoint x="280" y="380" as="sourcePoint" />
            <mxPoint x="320" y="380" as="targetPoint" />
          </mxGeometry>
        </mxCell>
        <mxCell id="t_ZIJ9nXfUMjoGaq77Y5-56" value="B" style="text;strokeColor=none;align=center;fillColor=none;html=1;verticalAlign=middle;whiteSpace=wrap;rounded=0;fontFamily=Lato;fontSource=https%3A%2F%2Ffonts.googleapis.com%2Fcss%3Ffamily%3DLato;fontColor=#666666;" vertex="1" parent="1">
          <mxGeometry x="330" y="340" width="30" height="20" as="geometry" />
        </mxCell>
        <mxCell id="t_ZIJ9nXfUMjoGaq77Y5-57" value="C" style="text;strokeColor=none;align=center;fillColor=none;html=1;verticalAlign=middle;whiteSpace=wrap;rounded=0;fontFamily=Lato;fontSource=https%3A%2F%2Ffonts.googleapis.com%2Fcss%3Ffamily%3DLato;fontColor=#666666;" vertex="1" parent="1">
          <mxGeometry x="330" y="400" width="30" height="20" as="geometry" />
        </mxCell>
        <mxCell id="t_ZIJ9nXfUMjoGaq77Y5-58" value="D" style="text;strokeColor=none;align=center;fillColor=none;html=1;verticalAlign=middle;whiteSpace=wrap;rounded=0;fontFamily=Lato;fontSource=https%3A%2F%2Ffonts.googleapis.com%2Fcss%3Ffamily%3DLato;fontColor=#666666;" vertex="1" parent="1">
          <mxGeometry x="330" y="420" width="30" height="20" as="geometry" />
        </mxCell>
        <mxCell id="t_ZIJ9nXfUMjoGaq77Y5-59" value="E" style="text;strokeColor=none;align=center;fillColor=none;html=1;verticalAlign=middle;whiteSpace=wrap;rounded=0;fontFamily=Lato;fontSource=https%3A%2F%2Ffonts.googleapis.com%2Fcss%3Ffamily%3DLato;fontColor=#666666;" vertex="1" parent="1">
          <mxGeometry x="840" y="320" width="30" height="20" as="geometry" />
        </mxCell>
        <mxCell id="t_ZIJ9nXfUMjoGaq77Y5-60" value="F" style="text;strokeColor=none;align=center;fillColor=none;html=1;verticalAlign=middle;whiteSpace=wrap;rounded=0;fontFamily=Lato;fontSource=https%3A%2F%2Ffonts.googleapis.com%2Fcss%3Ffamily%3DLato;fontColor=#666666;" vertex="1" parent="1">
          <mxGeometry x="840" y="340" width="30" height="20" as="geometry" />
        </mxCell>
        <mxCell id="t_ZIJ9nXfUMjoGaq77Y5-61" value="G" style="text;strokeColor=none;align=center;fillColor=none;html=1;verticalAlign=middle;whiteSpace=wrap;rounded=0;fontFamily=Lato;fontSource=https%3A%2F%2Ffonts.googleapis.com%2Fcss%3Ffamily%3DLato;fontColor=#666666;" vertex="1" parent="1">
          <mxGeometry x="840" y="400" width="30" height="20" as="geometry" />
        </mxCell>
        <mxCell id="t_ZIJ9nXfUMjoGaq77Y5-62" value="H" style="text;strokeColor=none;align=center;fillColor=none;html=1;verticalAlign=middle;whiteSpace=wrap;rounded=0;fontFamily=Lato;fontSource=https%3A%2F%2Ffonts.googleapis.com%2Fcss%3Ffamily%3DLato;fontColor=#666666;" vertex="1" parent="1">
          <mxGeometry x="840" y="420" width="30" height="20" as="geometry" />
        </mxCell>
        <mxCell id="t_ZIJ9nXfUMjoGaq77Y5-69" value="" style="group" vertex="1" connectable="0" parent="1">
          <mxGeometry x="190" y="340" width="78" height="80" as="geometry" />
        </mxCell>
        <mxCell id="t_ZIJ9nXfUMjoGaq77Y5-1" value="" style="endArrow=none;html=1;rounded=0;strokeWidth=2;strokeColor=#05C3DE;startArrow=oval;startFill=0;startSize=7;opacity=30;" edge="1" parent="t_ZIJ9nXfUMjoGaq77Y5-69">
          <mxGeometry width="50" height="50" relative="1" as="geometry">
            <mxPoint y="16" as="sourcePoint" />
            <mxPoint x="78" y="16" as="targetPoint" />
          </mxGeometry>
        </mxCell>
        <mxCell id="t_ZIJ9nXfUMjoGaq77Y5-2" value="" style="endArrow=none;html=1;rounded=0;strokeWidth=2;strokeColor=#05C3DE;startArrow=oval;startFill=0;startSize=7;opacity=30;" edge="1" parent="t_ZIJ9nXfUMjoGaq77Y5-69">
          <mxGeometry width="50" height="50" relative="1" as="geometry">
            <mxPoint y="32" as="sourcePoint" />
            <mxPoint x="78" y="32" as="targetPoint" />
          </mxGeometry>
        </mxCell>
        <mxCell id="t_ZIJ9nXfUMjoGaq77Y5-3" value="" style="endArrow=none;html=1;rounded=0;strokeWidth=2;strokeColor=#05C3DE;startArrow=oval;startFill=0;startSize=7;opacity=30;" edge="1" parent="t_ZIJ9nXfUMjoGaq77Y5-69">
          <mxGeometry width="50" height="50" relative="1" as="geometry">
            <mxPoint y="48" as="sourcePoint" />
            <mxPoint x="78" y="48" as="targetPoint" />
          </mxGeometry>
        </mxCell>
        <mxCell id="t_ZIJ9nXfUMjoGaq77Y5-4" value="" style="endArrow=none;html=1;rounded=0;strokeWidth=2;strokeColor=#05C3DE;startArrow=oval;startFill=0;startSize=7;opacity=30;" edge="1" parent="t_ZIJ9nXfUMjoGaq77Y5-69">
          <mxGeometry width="50" height="50" relative="1" as="geometry">
            <mxPoint y="64" as="sourcePoint" />
            <mxPoint x="78" y="64" as="targetPoint" />
          </mxGeometry>
        </mxCell>
        <mxCell id="t_ZIJ9nXfUMjoGaq77Y5-9" value="" style="endArrow=none;html=1;rounded=0;strokeWidth=2;strokeColor=#05C3DE;startArrow=oval;startFill=0;startSize=7;opacity=30;" edge="1" parent="t_ZIJ9nXfUMjoGaq77Y5-69">
          <mxGeometry width="50" height="50" relative="1" as="geometry">
            <mxPoint x="62.400000000000006" as="sourcePoint" />
            <mxPoint x="62.400000000000006" y="80" as="targetPoint" />
          </mxGeometry>
        </mxCell>
        <mxCell id="t_ZIJ9nXfUMjoGaq77Y5-10" value="" style="endArrow=none;html=1;rounded=0;strokeWidth=2;strokeColor=#05C3DE;startArrow=oval;startFill=0;startSize=7;opacity=30;" edge="1" parent="t_ZIJ9nXfUMjoGaq77Y5-69">
          <mxGeometry width="50" height="50" relative="1" as="geometry">
            <mxPoint x="46.800000000000004" as="sourcePoint" />
            <mxPoint x="46.800000000000004" y="80" as="targetPoint" />
          </mxGeometry>
        </mxCell>
        <mxCell id="t_ZIJ9nXfUMjoGaq77Y5-11" value="" style="endArrow=none;html=1;rounded=0;strokeWidth=2;strokeColor=#05C3DE;startArrow=oval;startFill=0;startSize=7;opacity=30;" edge="1" parent="t_ZIJ9nXfUMjoGaq77Y5-69">
          <mxGeometry width="50" height="50" relative="1" as="geometry">
            <mxPoint x="31.200000000000003" as="sourcePoint" />
            <mxPoint x="31.200000000000003" y="80" as="targetPoint" />
          </mxGeometry>
        </mxCell>
        <mxCell id="t_ZIJ9nXfUMjoGaq77Y5-12" value="" style="endArrow=none;html=1;rounded=0;strokeWidth=2;strokeColor=#05C3DE;startArrow=oval;startFill=0;startSize=7;opacity=30;" edge="1" parent="t_ZIJ9nXfUMjoGaq77Y5-69">
          <mxGeometry width="50" height="50" relative="1" as="geometry">
            <mxPoint x="15.600000000000001" as="sourcePoint" />
            <mxPoint x="15.600000000000001" y="80" as="targetPoint" />
          </mxGeometry>
        </mxCell>
        <mxCell id="t_ZIJ9nXfUMjoGaq77Y5-70" value="" style="endArrow=none;html=1;rounded=0;strokeWidth=2;strokeColor=#05C3DE;startArrow=none;startFill=0;startSize=12;exitX=1;exitY=0.5;exitDx=0;exitDy=0;entryX=1;entryY=0.75;entryDx=0;entryDy=0;" edge="1" parent="1" source="t_ZIJ9nXfUMjoGaq77Y5-31" target="t_ZIJ9nXfUMjoGaq77Y5-77">
          <mxGeometry width="50" height="50" relative="1" as="geometry">
            <mxPoint x="480" y="334.89" as="sourcePoint" />
            <mxPoint x="560" y="334.89" as="targetPoint" />
          </mxGeometry>
        </mxCell>
        <mxCell id="t_ZIJ9nXfUMjoGaq77Y5-71" value="" style="endArrow=none;html=1;rounded=0;strokeWidth=2;strokeColor=#05C3DE;startArrow=none;startFill=0;startSize=12;entryX=1;entryY=0.25;entryDx=0;entryDy=0;" edge="1" parent="1" target="t_ZIJ9nXfUMjoGaq77Y5-77">
          <mxGeometry width="50" height="50" relative="1" as="geometry">
            <mxPoint x="480" y="419.52" as="sourcePoint" />
            <mxPoint x="560" y="419.52" as="targetPoint" />
          </mxGeometry>
        </mxCell>
        <mxCell id="t_ZIJ9nXfUMjoGaq77Y5-74" value="" style="endArrow=none;html=1;rounded=0;strokeWidth=1;strokeColor=#FFB81C;startArrow=none;startFill=0;startSize=12;dashed=1;endFill=0;jumpSize=6;entryX=0.995;entryY=0.12;entryDx=0;entryDy=0;entryPerimeter=0;" edge="1" parent="1" target="t_ZIJ9nXfUMjoGaq77Y5-31">
          <mxGeometry width="50" height="50" relative="1" as="geometry">
            <mxPoint x="370" y="325" as="sourcePoint" />
            <mxPoint x="490" y="325" as="targetPoint" />
          </mxGeometry>
        </mxCell>
        <mxCell id="t_ZIJ9nXfUMjoGaq77Y5-76" value="" style="rounded=0;whiteSpace=wrap;html=1;strokeColor=#00A499;strokeWidth=2;shadow=1;rotation=-180;container=0;" vertex="1" parent="1">
          <mxGeometry x="560" y="440" width="80" height="40" as="geometry" />
        </mxCell>
        <mxCell id="t_ZIJ9nXfUMjoGaq77Y5-77" value="" style="rounded=0;whiteSpace=wrap;html=1;strokeColor=#00A499;strokeWidth=2;shadow=1;rotation=-180;container=0;" vertex="1" parent="1">
          <mxGeometry x="560" y="360" width="80" height="40" as="geometry" />
        </mxCell>
        <mxCell id="t_ZIJ9nXfUMjoGaq77Y5-78" value="" style="rounded=0;whiteSpace=wrap;html=1;strokeColor=#00A499;strokeWidth=2;shadow=1;rotation=-180;container=0;" vertex="1" parent="1">
          <mxGeometry x="560" y="280" width="80" height="40" as="geometry" />
        </mxCell>
        <mxCell id="t_ZIJ9nXfUMjoGaq77Y5-85" value="" style="group;rotation=-180;" vertex="1" connectable="0" parent="1">
          <mxGeometry x="640" y="290" width="80" height="180" as="geometry" />
        </mxCell>
        <mxCell id="t_ZIJ9nXfUMjoGaq77Y5-79" value="" style="endArrow=none;html=1;rounded=0;strokeWidth=2;strokeColor=#05C3DE;startArrow=none;startFill=0;startSize=12;entryX=1;entryY=0.75;entryDx=0;entryDy=0;" edge="1" parent="t_ZIJ9nXfUMjoGaq77Y5-85">
          <mxGeometry width="50" height="50" relative="1" as="geometry">
            <mxPoint x="80" y="140" as="sourcePoint" />
            <mxPoint y="180" as="targetPoint" />
          </mxGeometry>
        </mxCell>
        <mxCell id="t_ZIJ9nXfUMjoGaq77Y5-80" value="" style="endArrow=none;html=1;rounded=0;strokeWidth=2;strokeColor=#05C3DE;startArrow=none;startFill=0;startSize=12;exitX=1;exitY=0.75;exitDx=0;exitDy=0;entryX=1;entryY=0.75;entryDx=0;entryDy=0;" edge="1" parent="t_ZIJ9nXfUMjoGaq77Y5-85">
          <mxGeometry width="50" height="50" relative="1" as="geometry">
            <mxPoint x="80" y="120" as="sourcePoint" />
            <mxPoint y="20" as="targetPoint" />
          </mxGeometry>
        </mxCell>
        <mxCell id="t_ZIJ9nXfUMjoGaq77Y5-81" value="" style="endArrow=none;html=1;rounded=0;strokeWidth=2;strokeColor=#05C3DE;startArrow=none;startFill=0;startSize=12;entryX=1;entryY=0.25;entryDx=0;entryDy=0;" edge="1" parent="t_ZIJ9nXfUMjoGaq77Y5-85">
          <mxGeometry width="50" height="50" relative="1" as="geometry">
            <mxPoint x="80" y="60" as="sourcePoint" />
            <mxPoint y="160" as="targetPoint" />
          </mxGeometry>
        </mxCell>
        <mxCell id="t_ZIJ9nXfUMjoGaq77Y5-82" value="" style="endArrow=none;html=1;rounded=0;strokeWidth=2;strokeColor=#05C3DE;startArrow=none;startFill=0;startSize=12;entryX=1;entryY=0.25;entryDx=0;entryDy=0;" edge="1" parent="t_ZIJ9nXfUMjoGaq77Y5-85">
          <mxGeometry width="50" height="50" relative="1" as="geometry">
            <mxPoint x="80" y="40" as="sourcePoint" />
            <mxPoint as="targetPoint" />
          </mxGeometry>
        </mxCell>
        <mxCell id="t_ZIJ9nXfUMjoGaq77Y5-83" value="" style="endArrow=none;html=1;rounded=0;strokeWidth=2;strokeColor=#05C3DE;startArrow=none;startFill=0;startSize=12;exitX=1;exitY=0.5;exitDx=0;exitDy=0;entryX=1;entryY=0.75;entryDx=0;entryDy=0;" edge="1" parent="t_ZIJ9nXfUMjoGaq77Y5-85">
          <mxGeometry width="50" height="50" relative="1" as="geometry">
            <mxPoint x="80" y="130" as="sourcePoint" />
            <mxPoint y="100" as="targetPoint" />
          </mxGeometry>
        </mxCell>
        <mxCell id="t_ZIJ9nXfUMjoGaq77Y5-84" value="" style="endArrow=none;html=1;rounded=0;strokeWidth=2;strokeColor=#05C3DE;startArrow=none;startFill=0;startSize=12;entryX=1;entryY=0.25;entryDx=0;entryDy=0;" edge="1" parent="t_ZIJ9nXfUMjoGaq77Y5-85">
          <mxGeometry width="50" height="50" relative="1" as="geometry">
            <mxPoint x="80" y="50" as="sourcePoint" />
            <mxPoint y="80" as="targetPoint" />
          </mxGeometry>
        </mxCell>
        <mxCell id="t_ZIJ9nXfUMjoGaq77Y5-86" value="" style="endArrow=none;html=1;rounded=0;strokeWidth=1;strokeColor=#FFB81C;startArrow=none;startFill=0;startSize=12;dashed=1;endFill=0;jumpSize=6;" edge="1" parent="1">
          <mxGeometry width="50" height="50" relative="1" as="geometry">
            <mxPoint x="720" y="325" as="sourcePoint" />
            <mxPoint x="830" y="325" as="targetPoint" />
          </mxGeometry>
        </mxCell>
        <mxCell id="t_ZIJ9nXfUMjoGaq77Y5-87" value="" style="endArrow=none;html=1;rounded=0;strokeWidth=1;strokeColor=#FFB81C;startArrow=none;startFill=0;startSize=12;dashed=1;endFill=0;jumpSize=6;" edge="1" parent="1">
          <mxGeometry width="50" height="50" relative="1" as="geometry">
            <mxPoint x="481" y="325" as="sourcePoint" />
            <mxPoint x="561" y="285" as="targetPoint" />
          </mxGeometry>
        </mxCell>
        <mxCell id="t_ZIJ9nXfUMjoGaq77Y5-88" value="" style="endArrow=none;html=1;rounded=0;strokeWidth=1;strokeColor=#FFB81C;startArrow=none;startFill=0;startSize=12;dashed=1;endFill=0;jumpSize=6;" edge="1" parent="1">
          <mxGeometry width="50" height="50" relative="1" as="geometry">
            <mxPoint x="640" y="285" as="sourcePoint" />
            <mxPoint x="720" y="325" as="targetPoint" />
          </mxGeometry>
        </mxCell>
        <mxCell id="t_ZIJ9nXfUMjoGaq77Y5-89" value="" style="endArrow=none;html=1;rounded=0;strokeWidth=1;strokeColor=#FFB81C;startArrow=none;startFill=0;startSize=12;dashed=1;endFill=0;jumpSize=6;entryX=0;entryY=1;entryDx=0;entryDy=0;exitX=1;exitY=1;exitDx=0;exitDy=0;" edge="1" parent="1">
          <mxGeometry width="50" height="50" relative="1" as="geometry">
            <mxPoint x="560" y="285" as="sourcePoint" />
            <mxPoint x="640" y="285" as="targetPoint" />
          </mxGeometry>
        </mxCell>
        <mxCell id="t_ZIJ9nXfUMjoGaq77Y5-90" value="" style="endArrow=none;html=1;rounded=0;strokeWidth=1;strokeColor=#0047BB;startArrow=none;startFill=0;startSize=12;dashed=1;endFill=0;jumpSize=6;entryX=0.995;entryY=0.12;entryDx=0;entryDy=0;entryPerimeter=0;" edge="1" parent="1">
          <mxGeometry width="50" height="50" relative="1" as="geometry">
            <mxPoint x="370" y="344.6" as="sourcePoint" />
            <mxPoint x="480" y="344.6" as="targetPoint" />
          </mxGeometry>
        </mxCell>
        <mxCell id="t_ZIJ9nXfUMjoGaq77Y5-91" value="" style="endArrow=none;html=1;rounded=0;strokeWidth=1;strokeColor=#0047BB;startArrow=none;startFill=0;startSize=12;dashed=1;endFill=0;jumpSize=6;" edge="1" parent="1">
          <mxGeometry width="50" height="50" relative="1" as="geometry">
            <mxPoint x="720" y="344.6" as="sourcePoint" />
            <mxPoint x="830" y="344.6" as="targetPoint" />
          </mxGeometry>
        </mxCell>
        <mxCell id="t_ZIJ9nXfUMjoGaq77Y5-92" value="" style="endArrow=none;html=1;rounded=0;strokeWidth=1;strokeColor=#0047BB;startArrow=none;startFill=0;startSize=12;dashed=1;endFill=0;jumpSize=6;entryX=1;entryY=0.75;entryDx=0;entryDy=0;" edge="1" parent="1">
          <mxGeometry width="50" height="50" relative="1" as="geometry">
            <mxPoint x="481" y="345" as="sourcePoint" />
            <mxPoint x="560" y="375" as="targetPoint" />
          </mxGeometry>
        </mxCell>
        <mxCell id="t_ZIJ9nXfUMjoGaq77Y5-93" value="" style="endArrow=none;html=1;rounded=0;strokeWidth=1;strokeColor=#0047BB;startArrow=none;startFill=0;startSize=12;dashed=1;endFill=0;jumpSize=6;" edge="1" parent="1">
          <mxGeometry width="50" height="50" relative="1" as="geometry">
            <mxPoint x="640" y="375" as="sourcePoint" />
            <mxPoint x="720" y="345" as="targetPoint" />
          </mxGeometry>
        </mxCell>
        <mxCell id="t_ZIJ9nXfUMjoGaq77Y5-94" value="" style="endArrow=none;html=1;rounded=0;strokeWidth=1;strokeColor=#0047BB;startArrow=none;startFill=0;startSize=12;dashed=1;endFill=0;jumpSize=6;entryX=0;entryY=1;entryDx=0;entryDy=0;exitX=1;exitY=1;exitDx=0;exitDy=0;" edge="1" parent="1">
          <mxGeometry width="50" height="50" relative="1" as="geometry">
            <mxPoint x="560" y="375" as="sourcePoint" />
            <mxPoint x="640" y="375" as="targetPoint" />
          </mxGeometry>
        </mxCell>
      </root>
    </mxGraphModel>
  </diagram>
</mxfile>
